<?xml version="1.0" encoding="UTF-8"?>
<!DOCTYPE svg PUBLIC "-//W3C//DTD SVG 1.1//EN" "http://www.w3.org/Graphics/SVG/1.1/DTD/svg11.dtd">
<svg xmlns="http://www.w3.org/2000/svg" version="1.1" width="512px" height="512px" style="shape-rendering:geometricPrecision; text-rendering:geometricPrecision; image-rendering:optimizeQuality; fill-rule:evenodd; clip-rule:evenodd" xmlns:xlink="http://www.w3.org/1999/xlink">
<g><path style="opacity:0.968" fill="#000000" d="M 233.5,-0.5 C 248.167,-0.5 262.833,-0.5 277.5,-0.5C 368.421,10.2899 436.587,55.2899 482,134.5C 498.04,165.773 507.873,198.773 511.5,233.5C 511.5,248.5 511.5,263.5 511.5,278.5C 506.737,323.029 492.071,364.029 467.5,401.5C 478.201,428.901 491.034,455.235 506,480.5C 510.78,491.904 507.947,500.737 497.5,507C 493.903,508.277 490.236,508.61 486.5,508C 468.741,499.621 451.075,490.954 433.5,482C 422.316,476.716 410.816,472.216 399,468.5C 362.323,492.67 322.156,507.003 278.5,511.5C 263.5,511.5 248.5,511.5 233.5,511.5C 133.194,499.017 61.694,447.017 19,355.5C 8.86392,330.621 2.36392,304.954 -0.5,278.5C -0.5,263.167 -0.5,247.833 -0.5,232.5C 9.30698,148.242 49.6403,83.0754 120.5,37C 155.422,15.9704 193.088,3.4704 233.5,-0.5 Z M 446.5,447.5 C 431.753,440.64 416.42,435.473 400.5,432C 394.189,431.077 388.189,432.077 382.5,435C 330.331,471.035 272.997,483.035 210.5,471C 140.085,453.907 88.5846,413.074 56,348.5C 23.9451,273.447 29.6118,201.447 73,132.5C 126.683,59.424 198.849,27.924 289.5,38C 372.572,54.0786 430.072,101.245 462,179.5C 481.674,235.954 479.674,291.62 456,346.5C 448.159,361.524 439.825,376.19 431,390.5C 430.032,398.314 430.699,405.98 433,413.5C 437.236,424.967 441.736,436.3 446.5,447.5 Z"/></g>
</svg>
