<svg xmlns="http://www.w3.org/2000/svg" xmlns:xlink="http://www.w3.org/1999/xlink" version="1.1" width="256" height="256" viewBox="0 0 256 256" xml:space="preserve">

<defs>
</defs>
<g style="stroke: none; stroke-width: 0; stroke-dasharray: none; stroke-linecap: butt; stroke-linejoin: miter; stroke-miterlimit: 10; fill: none; fill-rule: nonzero; opacity: 1;" transform="translate(1.4065934065934016 1.4065934065934016) scale(2.81 2.81)" >
	<path d="M 31.121 43.543 c -0.852 0 -1.689 -0.362 -2.275 -1.042 L 0.727 9.836 C -0.051 8.934 -0.22 7.656 0.295 6.581 c 0.516 -1.074 1.607 -1.748 2.81 -1.7 l 84 2.952 c 1.356 0.047 2.513 1 2.817 2.324 c 0.306 1.323 -0.315 2.686 -1.515 3.323 l -55.88 29.712 C 32.083 43.429 31.6 43.543 31.121 43.543 z M 9.747 11.118 l 22.082 25.65 L 75.71 13.436 L 9.747 11.118 z" style="stroke: none; stroke-width: 1; stroke-dasharray: none; stroke-linecap: butt; stroke-linejoin: miter; stroke-miterlimit: 10; fill: rgb(0,0,0); fill-rule: nonzero; opacity: 1;" transform=" matrix(1 0 0 1 0 0) " stroke-linecap="round" />
	<path d="M 42.475 85.121 c -0.145 0 -0.291 -0.011 -0.437 -0.032 c -1.179 -0.173 -2.144 -1.027 -2.458 -2.178 L 28.226 41.333 c -0.37 -1.353 0.248 -2.781 1.486 -3.439 l 55.88 -29.712 c 1.196 -0.637 2.676 -0.39 3.602 0.603 c 0.927 0.993 1.07 2.484 0.352 3.636 L 45.019 83.71 C 44.466 84.596 43.5 85.121 42.475 85.121 z M 34.646 42.066 l 8.917 32.651 l 34.965 -55.983 L 34.646 42.066 z" style="stroke: none; stroke-width: 1; stroke-dasharray: none; stroke-linecap: butt; stroke-linejoin: miter; stroke-miterlimit: 10; fill: rgb(0,0,0); fill-rule: nonzero; opacity: 1;" transform=" matrix(1 0 0 1 0 0) " stroke-linecap="round" />
</g>
</svg>